<svg width="177" height="144" viewBox="0 0 177 144" fill="none" xmlns="http://www.w3.org/2000/svg">
<path d="M134.959 3L95.959 25V70L134.959 93L173.959 71V26L134.959 3Z" stroke="#CCEDFF" stroke-width="5" stroke-linecap="round" stroke-linejoin="round"/>
<path d="M149.154 28H117.206V30.2105C119.575 29.7053 120.998 30.8421 121.414 31.4737C121.465 39.9474 121.538 57.8421 121.414 61.6316C121.289 65.4211 117.725 65.1053 115.959 64.4737V67H151.024L151.959 54.3684H148.686C148.562 56.1368 147.284 58.7895 146.66 59.8947C140.551 65.5789 133.102 62.5789 130.141 60.3684V48.3684C138.494 47.3579 139.959 51.8421 139.647 54.2105H141.829C141.881 49.1579 141.954 39.0526 141.829 39.0526H139.647C139.398 45.1158 133.517 45.4737 130.608 44.8947V31.9474C144.073 29.5474 146.504 35.2632 146.037 38.4211H149.933C149.808 31.9789 149.362 28.7895 149.154 28Z" stroke="#CCEDFF" stroke-width="2"/>
</svg>
